<svg width="198" height="298" viewBox="0 0 198 298" fill="none" xmlns="http://www.w3.org/2000/svg">
<g clip-path="url(#clip0_764_12)">
<path d="M49.5101 298C76.8287 298 99.0002 275.749 99.0002 248.333V198.667H49.5101C22.1916 198.667 0.0200195 220.917 0.0200195 248.333C0.0200195 275.749 22.1916 298 49.5101 298Z" fill="#0ACF83"/>
<path d="M0.0200195 149C0.0200195 121.584 22.1916 99.3333 49.5101 99.3333H99.0002V198.667H49.5101C22.1916 198.667 0.0200195 176.416 0.0200195 149Z" fill="#A259FF"/>
<path d="M0.0200195 49.6667C0.0200195 22.2507 22.1916 0 49.5101 0H99.0002V99.3333H49.5101C22.1916 99.3333 0.0200195 77.0827 0.0200195 49.6667Z" fill="#F24E1E"/>
<path d="M99 0H148.49C175.809 0 197.98 22.2507 197.98 49.6667C197.98 77.0827 175.809 99.3333 148.49 99.3333H99V0Z" fill="#FF7262"/>
<path d="M197.98 149C197.98 176.416 175.809 198.667 148.49 198.667C121.172 198.667 99 176.416 99 149C99 121.584 121.172 99.3333 148.49 99.3333C175.809 99.3333 197.98 121.584 197.98 149Z" fill="#1ABCFE"/>
</g>
<defs>
<clipPath id="clip0_764_12">
<rect width="198" height="298" fill="white"/>
</clipPath>
</defs>
</svg>
