<svg width="244" height="244" viewBox="0 0 244 244" fill="none" xmlns="http://www.w3.org/2000/svg">
<g clip-path="url(#clip0_739_55)">
<path d="M0.5 0.197083H243.5V243.197H0.5V0.197083Z" fill="#F0DB4F"/>
<path d="M223.612 185.242C221.833 174.155 214.603 164.846 193.19 156.161C185.753 152.742 177.46 150.294 174.989 144.657C174.111 141.377 173.995 139.529 174.55 137.543C176.144 131.098 183.835 129.089 189.934 130.937C193.86 132.253 197.579 135.279 199.82 140.107C210.307 133.316 210.284 133.362 217.606 128.696C214.927 124.539 213.494 122.621 211.739 120.843C205.433 113.798 196.84 110.171 183.096 110.448C180.717 110.748 178.315 111.072 175.936 111.372C169.076 113.105 162.538 116.708 158.704 121.536C147.201 134.587 150.481 157.431 164.479 166.833C178.269 177.181 198.526 179.537 201.113 189.215C203.631 201.065 192.405 204.899 181.248 203.537C173.025 201.827 168.452 197.646 163.508 190.047C154.408 195.313 154.408 195.313 145.053 200.695C147.27 205.546 149.603 207.741 153.322 211.945C170.923 229.8 214.973 228.922 222.873 201.897C223.196 200.972 225.321 194.782 223.612 185.242ZM132.602 111.88H109.873C109.873 131.514 109.781 151.01 109.781 170.644C109.781 183.14 110.428 194.597 108.395 198.108C105.069 205.014 96.4527 204.16 92.5259 202.82C88.5298 200.857 86.4971 198.062 84.141 194.112C83.4943 192.98 83.0092 192.102 82.8472 192.033C76.6801 195.798 70.5356 199.586 64.3682 203.352C67.4405 209.658 71.9677 215.132 77.7655 218.689C86.4276 223.886 98.0694 225.48 110.243 222.685C118.166 220.375 125.003 215.594 128.583 208.318C133.757 198.778 132.648 187.229 132.602 174.455C132.718 153.62 132.602 132.785 132.602 111.88Z" fill="#323330"/>
</g>
<defs>
<clipPath id="clip0_739_55">
<rect width="243" height="243" fill="white" transform="translate(0.5 0.197083)"/>
</clipPath>
</defs>
</svg>
