<svg width="209" height="241" viewBox="0 0 209 241" fill="none" xmlns="http://www.w3.org/2000/svg">
<path d="M208.343 60.0803L104.42 0.0803223L0.496704 60.0803V180.08L6.91647 183.787L66.6219 87.2141C71.1935 79.8196 82.3723 81.3779 84.7472 89.7408L96.7234 131.913C98.9757 125.854 101.653 119.278 104.764 112.612C113.424 94.0633 126.157 73.2502 143.747 61.9683C149.86 58.0474 159.095 61.8079 159.095 70.3207V208.513L208.343 180.08V60.0803Z" fill="white"/>
<path d="M141.095 218.906V88.0631C133.357 96.86 126.639 108.308 121.075 120.226C112.881 137.777 107.872 154.834 105.942 162.017C104.572 167.114 100.01 169.45 96.1883 169.421C92.406 169.393 87.9932 167.061 86.5927 162.129L72.3894 112.115L22.512 192.791L104.42 240.08L141.095 218.906Z" fill="white"/>
</svg>
