<svg width="310" height="346" viewBox="0 0 310 346" fill="none" xmlns="http://www.w3.org/2000/svg">
<path d="M154.766 0.577393C150.061 0.577393 145.488 1.53851 141.441 3.80479L13.3714 76.9913C5.08357 81.7145 0.0458984 90.6413 0.0458984 100.133V246.244C0.0458984 255.732 5.08357 264.643 13.3714 269.382L46.8173 288.454C63.0678 296.382 69.0617 296.255 76.4576 296.255C100.516 296.255 114.25 281.809 114.25 256.7V112.552C114.25 110.514 112.466 109.056 110.444 109.056H94.4012C92.3453 109.056 90.5956 110.552 90.5956 112.552V256.775C90.5956 267.904 78.88 279.101 59.8707 269.692L25.102 249.512C23.8738 248.851 22.9252 247.643 22.9252 246.285V100.174C22.9252 98.7902 23.8624 97.3765 25.102 96.6772L152.903 23.7525C154.101 23.0719 155.526 23.0719 156.709 23.7525L284.51 96.6772C285.727 97.399 286.687 98.7453 286.687 100.174V246.285C286.687 247.68 285.98 249.109 284.782 249.782L156.713 322.706C155.579 323.353 154.067 323.353 152.907 322.706L120.005 303.335C119.023 302.766 117.689 302.811 116.744 303.335C107.662 308.428 105.954 309.019 97.4397 311.943C95.3423 312.665 92.1488 313.791 98.5281 317.329L141.49 342.385C145.579 344.726 150.137 345.882 154.815 345.882C159.558 345.882 164.048 344.76 168.141 342.385L296.21 269.46C304.498 264.688 309.536 255.81 309.536 246.322V100.211C309.536 90.7198 304.498 81.8118 296.21 77.0698L168.141 3.88332C164.127 1.61705 159.524 0.655927 154.815 0.655927L154.766 0.577393ZM189.029 104.983C152.559 104.983 130.84 120.342 130.84 145.881C130.84 173.555 152.397 181.199 187.4 184.624C229.273 188.682 232.538 194.767 232.538 202.923C232.538 217.07 221.14 223.102 194.199 223.102C160.352 223.102 152.911 214.74 150.42 198.046C150.125 196.259 148.735 194.819 146.887 194.819H130.258C129.256 194.841 128.301 195.245 127.592 195.946C126.883 196.648 126.475 197.593 126.453 198.585C126.453 219.912 138.176 245.133 194.161 245.133C234.685 245.133 258.059 229.426 258.059 201.812C258.059 174.512 239.178 167.134 199.871 161.984C160.189 156.748 156.365 154.243 156.365 145.032C156.365 137.433 159.577 127.268 188.995 127.268C215.271 127.268 224.984 132.878 228.967 150.41C229.315 152.055 230.781 153.401 232.501 153.401H249.129C250.15 153.401 251.14 152.781 251.85 152.055C252.546 151.281 253.037 150.41 252.939 149.363C250.369 119.168 230.021 104.964 189.04 104.964L189.029 104.983Z" fill="#83CD29"/>
</svg>
