<svg width="256" height="231" viewBox="0 0 256 231" fill="none" xmlns="http://www.w3.org/2000/svg">
<g clip-path="url(#clip0_739_283)">
<path d="M157.98 143.119L153.07 151.645C151.591 154.214 148.852 155.797 145.888 155.797H108.271C105.307 155.797 102.568 154.214 101.089 151.645L96.1779 143.119H157.98ZM171.727 119.248L163.069 134.282H91.0892L82.4313 119.248H171.727ZM163.387 95.9064L171.741 110.413H82.4175L90.7716 95.9064H163.387ZM145.888 73.8402C148.852 73.8402 151.591 75.4233 153.07 77.9919L158.298 87.0703H95.8602L101.089 77.9919C102.568 75.4233 105.307 73.8402 108.271 73.8402H145.888Z" fill="#00435B"/>
<path d="M53.5228 69.8836C49.3558 49.6776 48.4615 34.1798 51.155 22.9263C52.757 16.2333 55.6858 10.7733 60.1393 6.83397C64.8409 2.67508 70.7854 0.634306 77.4646 0.634306C88.4833 0.634306 100.067 5.65898 112.446 15.2045C117.495 19.098 122.735 23.7909 128.177 29.286C128.611 28.7284 129.1 28.2024 129.646 27.7162C145.032 14.0048 157.986 5.4858 169.066 2.20112C175.654 0.248043 181.839 0.0619719 187.471 1.9575C193.417 3.95835 198.154 8.0944 201.497 13.8877C207.013 23.4487 208.467 36.0119 206.411 51.5243C205.573 57.8473 204.14 64.7349 202.115 72.1977C202.879 72.2899 203.645 72.4593 204.403 72.7105C223.924 79.1798 237.748 86.1367 246.117 94.0872C251.096 98.8176 254.348 104.084 255.524 109.913C256.764 116.066 255.554 122.238 252.216 128.027C246.71 137.574 236.587 145.104 222.164 151.068C216.373 153.463 209.821 155.632 202.5 157.582C202.834 158.337 203.094 159.137 203.267 159.978C207.434 180.184 208.328 195.681 205.635 206.935C204.033 213.628 201.104 219.088 196.65 223.027C191.949 227.186 186.004 229.227 179.325 229.227C168.306 229.227 156.723 224.202 144.344 214.657C139.241 210.722 133.943 205.97 128.438 200.4C127.872 201.286 127.177 202.109 126.354 202.842C110.968 216.553 98.014 225.072 86.9344 228.357C80.3464 230.31 74.1611 230.496 68.5286 228.601C62.5831 226.6 57.8457 222.464 54.5033 216.67C48.9872 207.109 47.5326 194.546 49.5891 179.034C50.4576 172.482 51.9648 165.325 54.1071 157.549C53.2697 157.464 52.4289 157.287 51.5974 157.011C32.0755 150.542 18.252 143.585 9.88292 135.635C4.90352 130.904 1.65191 125.638 0.476477 119.809C-0.764196 113.656 0.445557 107.484 3.78402 101.695C9.28982 92.1479 19.4134 84.6181 33.8357 78.654C39.7993 76.1878 46.5701 73.9612 54.156 71.9659C53.8858 71.3042 53.6723 70.6085 53.5228 69.8836Z" fill="#002B3B"/>
<path d="M189.647 161.964C191.588 161.62 193.448 162.865 193.881 164.774L193.905 164.887L194.112 165.961C200.822 201.238 196.095 218.876 179.932 218.876C164.119 218.876 143.988 203.825 119.54 173.724C119 173.059 118.708 172.226 118.715 171.369C118.733 169.373 120.335 167.762 122.317 167.719L122.431 167.718L123.719 167.727C134.007 167.783 144.008 167.424 153.723 166.651C165.19 165.739 177.165 164.176 189.647 161.964ZM78.6458 135.298L78.7078 135.403L79.3537 136.53C84.5306 145.531 89.9242 154.073 95.5345 162.157C102.142 171.678 109.572 181.316 117.825 191.072C119.101 192.581 118.956 194.821 117.515 196.153L117.422 196.237L116.591 196.952C89.2852 220.349 71.5374 225.019 63.3477 210.964C55.3313 197.206 58.2377 172.19 72.0669 135.917C72.3708 135.12 72.9419 134.453 73.6828 134.03C75.4143 133.042 77.6095 133.612 78.6458 135.298ZM203.503 83.2447L203.615 83.2811L204.643 83.6361C238.348 95.3606 251.153 108.245 243.059 122.29C235.143 136.027 212.129 146.028 174.018 152.295C173.168 152.434 172.296 152.272 171.553 151.835C169.8 150.804 169.214 148.547 170.245 146.793C175.703 137.508 180.62 128.269 184.993 119.077C189.954 108.651 194.609 97.461 198.959 85.506C199.619 83.6934 201.556 82.709 203.391 83.212L203.503 83.2447ZM84.4464 77.3415C86.2001 78.3725 86.786 80.63 85.755 82.3837C80.2965 91.6688 75.3802 100.908 71.0063 110.1C66.0458 120.526 61.3906 131.716 57.0407 143.671C56.3678 145.52 54.3643 146.508 52.4965 145.932L52.3846 145.896L51.3569 145.541C17.6521 133.816 4.84679 120.931 12.9409 106.886C20.8572 93.1498 43.8709 83.1485 81.982 76.8823C82.8319 76.7425 83.7039 76.905 84.4464 77.3415ZM192.652 19.594C200.669 33.352 197.762 58.3677 183.933 94.6413C183.629 95.4384 183.058 96.1053 182.317 96.5281C180.586 97.5164 178.39 96.9457 177.354 95.2596L177.292 95.155L176.646 94.0276C171.469 85.0275 166.076 76.4853 160.465 68.401C153.858 58.8803 146.428 49.2422 138.175 39.4865C136.898 37.9773 137.044 35.7372 138.485 34.4049L138.578 34.3211L139.409 33.6064C166.715 10.2096 184.462 5.5388 192.652 19.594ZM77.4487 11.2215C93.2626 11.2215 113.393 26.2723 137.841 56.3739C138.381 57.039 138.673 57.8716 138.666 58.7284C138.648 60.7242 137.046 62.3354 135.065 62.3787L134.95 62.3794L133.662 62.3703C123.375 62.3145 113.373 62.6732 103.659 63.4464C92.1909 64.3591 80.2161 65.9215 67.7341 68.1336C65.7931 68.4775 63.9331 67.2331 63.4997 65.3239L63.4759 65.2109L63.269 64.1365C56.5592 28.8598 61.2857 11.2215 77.4487 11.2215Z" fill="#FF4154"/>
<path d="M111.295 74.3007H142.871C147.488 74.3007 151.754 76.7705 154.052 80.7756L169.907 108.402C172.188 112.376 172.188 117.262 169.907 121.236L154.052 148.862C151.754 152.867 147.488 155.337 142.871 155.337H111.295C106.677 155.337 102.412 152.867 100.113 148.862L84.2585 121.236C81.9777 117.262 81.9777 112.376 84.2585 108.402L100.113 80.7756C102.412 76.7705 106.677 74.3007 111.295 74.3007ZM138.058 82.6388C142.678 82.6388 146.945 85.1112 149.243 89.1196L160.299 108.407C162.575 112.379 162.575 117.259 160.299 121.23L149.243 140.518C146.945 144.526 142.678 146.999 138.058 146.999H116.107C111.487 146.999 107.22 144.526 104.922 140.518L93.8664 121.23C91.5902 117.259 91.5902 112.379 93.8664 108.407L104.922 89.1196C107.22 85.1112 111.487 82.6388 116.107 82.6388H138.058ZM132.871 91.7586H121.294C116.679 91.7586 112.415 94.226 110.116 98.2279L104.274 108.396C101.989 112.373 101.989 117.264 104.274 121.241L110.116 131.409C112.415 135.411 116.679 137.879 121.294 137.879H132.871C137.487 137.879 141.75 135.411 144.049 131.409L149.892 121.241C152.177 117.264 152.177 112.373 149.892 108.396L144.049 98.2279C141.75 94.226 137.487 91.7586 132.871 91.7586ZM127.876 100.488C132.488 100.488 136.749 102.951 139.05 106.949L139.878 108.388C142.17 112.369 142.17 117.269 139.878 121.25L139.05 122.689C136.749 126.686 132.488 129.15 127.876 129.15H126.289C121.677 129.15 117.416 126.686 115.115 122.689L114.287 121.25C111.996 117.269 111.996 112.369 114.287 108.388L115.115 106.949C117.416 102.951 121.677 100.488 126.289 100.488H127.876ZM127.085 109.086C125.032 109.086 123.139 110.179 122.114 111.952C121.089 113.726 121.089 115.911 122.114 117.685C123.139 119.459 125.032 120.551 127.081 120.551C129.133 120.551 131.026 119.459 132.051 117.685C133.076 115.911 133.076 113.726 132.051 111.952C131.026 110.179 129.133 109.086 127.085 109.086ZM80.5757 114.819H90.8965H80.5757Z" fill="#FFD94C"/>
</g>
<defs>
<clipPath id="clip0_739_283">
<rect width="256" height="230" fill="white" transform="translate(0 0.631592)"/>
</clipPath>
</defs>
</svg>
