<svg width="410" height="364" viewBox="0 0 410 364" fill="none" xmlns="http://www.w3.org/2000/svg">
<g clip-path="url(#clip0_739_19)">
<path d="M410 182.042C410 154.95 376.07 129.275 324.048 113.353C336.053 60.3369 330.718 18.157 307.208 4.65273C301.789 1.48507 295.453 -0.0153967 288.534 -0.0153967V18.5738C292.369 18.5738 295.453 19.324 298.038 20.7411C309.376 27.2432 314.294 52.0009 310.459 83.8442C309.542 91.68 308.042 99.9326 306.208 108.352C289.868 104.351 272.027 101.266 253.269 99.2657C242.015 83.8442 230.343 69.8398 218.589 57.586C245.766 32.3281 271.277 18.4904 288.617 18.4904V-0.0987549C265.691 -0.0987549 235.679 16.2397 205.333 44.5819C174.988 16.4064 144.975 0.234684 122.049 0.234684V18.8238C139.306 18.8238 164.9 32.5782 192.078 57.6694C180.406 69.9232 168.735 83.8442 157.647 99.2657C138.806 101.266 120.966 104.351 104.626 108.435C102.708 100.099 101.291 92.0135 100.29 84.261C96.3722 52.4177 101.208 27.66 112.462 21.0746C114.963 19.5741 118.214 18.9072 122.049 18.9072V0.318042C115.046 0.318042 108.711 1.81851 103.208 4.98617C79.7821 18.4904 74.53 60.5869 86.6182 113.437C34.7638 129.442 1 155.033 1 182.042C1 209.134 34.9305 234.808 86.9517 250.73C74.9468 303.747 80.2823 345.926 103.792 359.431C109.211 362.598 115.547 364.099 122.55 364.099C145.476 364.099 175.488 347.76 205.833 319.418C236.179 347.594 266.191 363.765 289.117 363.765C296.12 363.765 302.456 362.265 307.958 359.097C331.385 345.593 336.637 303.496 324.549 250.647C376.236 234.725 410 209.05 410 182.042ZM301.456 126.441C298.371 137.194 294.536 148.281 290.201 159.368C286.783 152.699 283.198 146.03 279.28 139.362C275.445 132.693 271.36 126.191 267.275 119.856C279.113 121.606 290.535 123.773 301.456 126.441ZM263.274 215.219C256.771 226.472 250.102 237.142 243.182 247.062C230.76 248.146 218.172 248.729 205.5 248.729C192.912 248.729 180.323 248.146 167.985 247.145C161.065 237.226 154.312 226.639 147.81 215.469C141.474 204.549 135.722 193.462 130.469 182.292C135.638 171.122 141.474 159.951 147.726 149.031C154.229 137.778 160.898 127.108 167.818 117.188C180.24 116.104 192.828 115.521 205.5 115.521C218.088 115.521 230.677 116.104 243.015 117.105C249.935 127.024 256.688 137.611 263.19 148.781C269.526 159.701 275.278 170.788 280.531 181.958C275.278 193.128 269.526 204.299 263.274 215.219ZM290.201 204.382C294.703 215.552 298.538 226.722 301.706 237.559C290.785 240.227 279.28 242.477 267.359 244.228C271.444 237.809 275.529 231.224 279.363 224.472C283.198 217.803 286.783 211.051 290.201 204.382ZM205.667 293.327C197.914 285.324 190.16 276.405 182.491 266.652C189.994 266.985 197.663 267.235 205.417 267.235C213.253 267.235 221.006 267.068 228.593 266.652C221.09 276.405 213.337 285.324 205.667 293.327ZM143.641 244.228C131.803 242.477 120.382 240.31 109.461 237.642C112.545 226.889 116.38 215.802 120.715 204.715C124.134 211.384 127.718 218.053 131.637 224.722C135.555 231.391 139.556 237.893 143.641 244.228ZM205.25 70.7568C213.003 78.7593 220.756 87.6788 228.426 97.4318C220.923 97.0984 213.253 96.8483 205.5 96.8483C197.663 96.8483 189.91 97.015 182.324 97.4318C189.827 87.6788 197.58 78.7593 205.25 70.7568ZM143.558 119.856C139.473 126.274 135.388 132.86 131.553 139.612C127.718 146.28 124.134 152.949 120.715 159.618C116.214 148.448 112.379 137.278 109.211 126.441C120.132 123.857 131.637 121.606 143.558 119.856ZM68.1107 224.222C38.5987 211.634 19.5075 195.129 19.5075 182.042C19.5075 168.954 38.5987 152.366 68.1107 139.862C75.2803 136.777 83.1168 134.027 91.2034 131.443C95.9554 147.781 102.208 164.786 109.961 182.208C102.291 199.547 96.1221 216.469 91.4535 232.724C83.2002 230.14 75.3637 227.306 68.1107 224.222ZM112.962 343.342C101.624 336.84 96.7057 312.082 100.541 280.239C101.458 272.403 102.958 264.151 104.792 255.731C121.132 259.733 138.973 262.817 157.731 264.818C168.985 280.239 180.657 294.244 192.411 306.497C165.234 331.755 139.723 345.593 122.383 345.593C118.631 345.51 115.463 344.759 112.962 343.342ZM310.71 279.822C314.628 311.666 309.792 336.423 298.538 343.009C296.037 344.509 292.786 345.176 288.951 345.176C271.694 345.176 246.1 331.422 218.922 306.331C230.594 294.077 242.265 280.156 253.353 264.734C272.194 262.734 290.034 259.649 306.374 255.565C308.292 263.984 309.793 272.07 310.71 279.822ZM342.806 224.222C335.636 227.306 327.8 230.057 319.713 232.641C314.961 216.302 308.709 199.297 300.956 181.875C308.625 164.536 314.795 147.614 319.463 131.359C327.716 133.943 335.553 136.777 342.889 139.862C372.401 152.449 391.492 168.954 391.492 182.042C391.409 195.129 372.318 211.718 342.806 224.222Z" fill="#61DAFB"/>
<path d="M205.417 220.137C226.458 220.137 243.516 203.081 243.516 182.042C243.516 161.002 226.458 143.946 205.417 143.946C184.375 143.946 167.318 161.002 167.318 182.042C167.318 203.081 184.375 220.137 205.417 220.137Z" fill="#61DAFB"/>
</g>
<defs>
<clipPath id="clip0_739_19">
<rect width="409" height="364" fill="white" transform="translate(0.5)"/>
</clipPath>
</defs>
</svg>
