<svg width="131" height="78" viewBox="0 0 131 78" fill="none" xmlns="http://www.w3.org/2000/svg">
<g clip-path="url(#clip0_739_45)">
<path d="M65.5 0.710999C48.1668 0.710999 37.3332 9.24397 33 26.3094C39.5 17.7764 47.0832 14.5766 55.75 16.71C60.6946 17.9269 64.2289 21.4592 68.1411 25.3685C74.5142 31.7376 81.8896 39.1086 98 39.1086C115.333 39.1086 126.167 30.5756 130.5 13.5102C124 22.0432 116.417 25.243 107.75 23.1096C102.805 21.8927 99.271 18.3604 95.3589 14.4511C88.9858 8.08204 81.6104 0.710999 65.5 0.710999ZM33 39.1086C15.6668 39.1086 4.83316 47.6416 0.5 64.707C7 56.174 14.5832 52.9742 23.25 55.1076C28.1946 56.3245 31.7289 59.8568 35.6411 63.7661C42.0142 70.1352 49.3896 77.5062 65.5 77.5062C82.8332 77.5062 93.6668 68.9732 98 51.9078C91.5 60.4408 83.9168 63.6406 75.25 61.5072C70.3054 60.2903 66.7711 56.758 62.8589 52.8487C56.4858 46.4796 49.1104 39.1086 33 39.1086Z" fill="url(#paint0_linear_739_45)"/>
</g>
<defs>
<linearGradient id="paint0_linear_739_45" x1="-924.018" y1="3775.35" x2="-550.784" y2="8029.22" gradientUnits="userSpaceOnUse">
<stop stop-color="#2298BD"/>
<stop offset="1" stop-color="#0ED7B5"/>
</linearGradient>
<clipPath id="clip0_739_45">
<rect width="130" height="77" fill="white" transform="translate(0.5 0.608612)"/>
</clipPath>
</defs>
</svg>
