<svg width="362" height="362" viewBox="0 0 362 362" fill="none" xmlns="http://www.w3.org/2000/svg">
<g clip-path="url(#clip0_739_50)">
<path d="M0 180.795V0H361.59V361.59H0" fill="#007ACC"/>
<path d="M79.2793 181.428V196.163H126.286V329.951H159.643V196.163H206.649V181.699C206.649 173.563 206.649 166.964 206.288 166.784C206.288 166.512 177.632 166.422 142.829 166.422L79.5505 166.693V181.518L79.2793 181.428ZM290.538 166.332C299.759 168.501 306.81 172.659 313.138 179.258C316.483 182.874 321.454 189.202 321.816 190.829C321.816 191.372 306.177 201.948 296.685 207.824C296.324 208.095 294.878 206.558 293.431 204.208C288.73 197.519 283.939 194.626 276.436 194.084C265.589 193.36 258.357 199.055 258.357 208.547C258.357 211.44 258.899 213.067 259.984 215.417C262.425 220.389 266.945 223.372 280.956 229.519C306.81 240.638 318.019 247.961 324.799 258.447C332.483 270.198 334.2 288.639 329.048 302.47C323.262 317.567 309.16 327.782 289.002 331.126C282.674 332.211 268.21 332.03 261.43 330.855C246.967 328.143 233.136 320.911 224.639 311.6C221.294 307.985 214.876 298.312 215.237 297.679L218.672 295.51L232.232 287.645L242.447 281.679L244.797 284.843C247.78 289.543 254.47 295.871 258.357 298.041C270.109 304.097 285.838 303.284 293.612 296.233C296.957 293.159 298.403 289.905 298.403 285.385C298.403 281.227 297.77 279.329 295.691 276.165C292.798 272.187 287.013 268.933 270.741 261.701C252.029 253.746 244.074 248.684 236.661 240.91C232.413 236.209 228.526 228.887 226.718 222.83C225.362 217.587 224.91 204.751 226.175 199.598C230.062 181.518 243.713 168.863 263.238 165.247C269.566 163.981 284.482 164.524 290.719 166.151L290.538 166.332Z" fill="white"/>
</g>
<defs>
<clipPath id="clip0_739_50">
<rect width="361.59" height="361.59" rx="47.0067" fill="white"/>
</clipPath>
</defs>
</svg>
