<svg width="98" height="94" viewBox="0 0 98 94" fill="none" xmlns="http://www.w3.org/2000/svg">
<path fill-rule="evenodd" clip-rule="evenodd" d="M48.8878 17.1584L34.8591 1.93695V12.6717L27.7027 5.27663V25.434H8.85729L16.2523 32.8291H1.58154L15.1788 46.4263L1.58154 60.0236H16.2523L8.85729 67.4187H27.7027V86.264L34.8591 80.181V92.3471L48.9589 76.8399V64.2033L35.5118 78.5674V60.0236H18.1377L30.1811 46.4263L17.0702 32.8291H34.8591V14.58L48.8878 28.0124V17.1584ZM48.8878 17.1584L62.9165 1.93695V12.6717L70.073 5.27663V25.434H88.9183L81.5233 32.8291H96.1941L82.5968 46.4263L96.1941 60.0236H81.5233L88.9183 67.4187H70.073V86.264L62.9165 80.181V92.3471L48.9614 76.8414V64.1983L62.2638 78.5674V60.0236H79.6379L67.5946 46.4263L80.7054 32.8291H62.9165V14.58L48.8878 28.0124V17.1584Z" fill="#DDDD88"/>
<path d="M34.8591 1.93695L35.1676 1.65263L34.4396 0.862697V1.93695H34.8591ZM48.8878 17.1584H49.3073V16.9945L49.1963 16.8741L48.8878 17.1584ZM34.8591 12.6717L34.5577 12.9634L35.2787 13.7085V12.6717H34.8591ZM27.7027 5.27663L28.0041 4.98488L27.2831 4.23983V5.27663H27.7027ZM27.7027 25.434V25.8536H28.1222V25.434H27.7027ZM8.85729 25.434V25.0145H7.84444L8.56063 25.7307L8.85729 25.434ZM16.2523 32.8291V33.2486H17.2652L16.549 32.5324L16.2523 32.8291ZM1.58154 32.8291V32.4095H0.568697L1.28489 33.1257L1.58154 32.8291ZM15.1788 46.4263L15.4755 46.723L15.7721 46.4263L15.4755 46.1297L15.1788 46.4263ZM1.58154 60.0236L1.28489 59.727L0.568697 60.4432H1.58154V60.0236ZM16.2523 60.0236L16.549 60.3203L17.2652 59.6041H16.2523V60.0236ZM8.85729 67.4187L8.56063 67.122L7.84444 67.8382H8.85729V67.4187ZM27.7027 67.4187H28.1222V66.9991H27.7027V67.4187ZM27.7027 86.264H27.2831V87.1713L27.9744 86.5837L27.7027 86.264ZM34.8591 80.181H35.2787V79.2738L34.5874 79.8614L34.8591 80.181ZM34.8591 92.3471H34.4396V93.4321L35.1695 92.6293L34.8591 92.3471ZM48.9589 76.8399L49.2693 77.1222L49.3784 77.0021V76.8399H48.9589ZM48.9589 64.2033H49.3784V63.1413L48.6526 63.9166L48.9589 64.2033ZM35.5118 78.5674H35.0923V79.6295L35.8181 78.8542L35.5118 78.5674ZM35.5118 60.0236H35.9313V59.6041H35.5118V60.0236ZM18.1377 60.0236L17.8237 59.7455L17.2057 60.4432H18.1377V60.0236ZM30.1811 46.4263L30.4951 46.7045L30.7522 46.4143L30.4831 46.1351L30.1811 46.4263ZM17.0702 32.8291V32.4095H16.0829L16.7682 33.1203L17.0702 32.8291ZM34.8591 32.8291V33.2486H35.2787V32.8291H34.8591ZM34.8591 14.58L35.1493 14.277L34.4396 13.5975V14.58H34.8591ZM48.8878 28.0124L48.5977 28.3154L49.3073 28.9949V28.0124H48.8878ZM62.9165 1.93695H63.336V0.862697L62.608 1.65263L62.9165 1.93695ZM48.8878 17.1584L48.5793 16.8741L48.4683 16.9945V17.1584H48.8878ZM62.9165 12.6717H62.497V13.7085L63.218 12.9634L62.9165 12.6717ZM70.073 5.27663H70.4925V4.23983L69.7715 4.98488L70.073 5.27663ZM70.073 25.434H69.6534V25.8536H70.073V25.434ZM88.9183 25.434L89.215 25.7307L89.9312 25.0145H88.9183V25.434ZM81.5233 32.8291L81.2267 32.5324L80.5105 33.2486H81.5233V32.8291ZM96.1941 32.8291L96.4907 33.1257L97.2069 32.4095H96.1941V32.8291ZM82.5968 46.4263L82.3001 46.1297L82.0035 46.4263L82.3001 46.723L82.5968 46.4263ZM96.1941 60.0236V60.4432H97.2069L96.4907 59.727L96.1941 60.0236ZM81.5233 60.0236V59.6041H80.5105L81.2267 60.3203L81.5233 60.0236ZM88.9183 67.4187V67.8382H89.9312L89.215 67.122L88.9183 67.4187ZM70.073 67.4187V66.9991H69.6534V67.4187H70.073ZM70.073 86.264L69.8013 86.5837L70.4925 87.1713V86.264H70.073ZM62.9165 80.181L63.1882 79.8614L62.497 79.2738V80.181H62.9165ZM62.9165 92.3471L62.6047 92.6277L63.336 93.4403V92.3471H62.9165ZM48.9614 76.8414H48.5418V77.0024L48.6495 77.122L48.9614 76.8414ZM48.9614 64.1983L49.2692 63.9132L48.5418 63.1275V64.1983H48.9614ZM62.2638 78.5674L61.956 78.8525L62.6834 79.6382V78.5674H62.2638ZM62.2638 60.0236V59.6041H61.8443V60.0236H62.2638ZM79.6379 60.0236V60.4432H80.5699L79.952 59.7455L79.6379 60.0236ZM67.5946 46.4263L67.2925 46.1351L67.0234 46.4143L67.2805 46.7045L67.5946 46.4263ZM80.7054 32.8291L81.0074 33.1203L81.6927 32.4095H80.7054V32.8291ZM62.9165 32.8291H62.497V33.2486H62.9165V32.8291ZM62.9165 14.58H63.336V13.5975L62.6263 14.277L62.9165 14.58ZM48.8878 28.0124H48.4683V28.9949L49.178 28.3154L48.8878 28.0124ZM34.5506 2.22127L48.5793 17.4427L49.1963 16.8741L35.1676 1.65263L34.5506 2.22127ZM35.2787 12.6717V1.93695H34.4396V12.6717H35.2787ZM27.4012 5.56839L34.5577 12.9634L35.1606 12.3799L28.0041 4.98488L27.4012 5.56839ZM28.1222 25.434V5.27663H27.2831V25.434H28.1222ZM8.85729 25.8536H27.7027V25.0145H8.85729V25.8536ZM16.549 32.5324L9.15394 25.1374L8.56063 25.7307L15.9557 33.1257L16.549 32.5324ZM1.58154 33.2486H16.2523V32.4095H1.58154V33.2486ZM15.4755 46.1297L1.8782 32.5324L1.28489 33.1257L14.8822 46.723L15.4755 46.1297ZM1.8782 60.3203L15.4755 46.723L14.8822 46.1297L1.28489 59.727L1.8782 60.3203ZM16.2523 59.6041H1.58154V60.4432H16.2523V59.6041ZM9.15394 67.7153L16.549 60.3203L15.9557 59.727L8.56063 67.122L9.15394 67.7153ZM27.7027 66.9991H8.85729V67.8382H27.7027V66.9991ZM28.1222 86.264V67.4187H27.2831V86.264H28.1222ZM34.5874 79.8614L27.431 85.9444L27.9744 86.5837L35.1308 80.5007L34.5874 79.8614ZM35.2787 92.3471V80.181H34.4396V92.3471H35.2787ZM48.6485 76.5577L34.5487 92.0648L35.1695 92.6293L49.2693 77.1222L48.6485 76.5577ZM48.5394 64.2033V76.8399H49.3784V64.2033H48.5394ZM35.8181 78.8542L49.2652 64.49L48.6526 63.9166L35.2055 78.2807L35.8181 78.8542ZM35.0923 60.0236V78.5674H35.9313V60.0236H35.0923ZM18.1377 60.4432H35.5118V59.6041H18.1377V60.4432ZM29.867 46.1482L17.8237 59.7455L18.4518 60.3018L30.4951 46.7045L29.867 46.1482ZM16.7682 33.1203L29.8791 46.7176L30.4831 46.1351L17.3722 32.5378L16.7682 33.1203ZM34.8591 32.4095H17.0702V33.2486H34.8591V32.4095ZM34.4396 14.58V32.8291H35.2787V14.58H34.4396ZM49.1779 27.7093L35.1493 14.277L34.569 14.8831L48.5977 28.3154L49.1779 27.7093ZM48.4683 17.1584V28.0124H49.3073V17.1584H48.4683ZM62.608 1.65263L48.5793 16.8741L49.1963 17.4427L63.225 2.22127L62.608 1.65263ZM63.336 12.6717V1.93695H62.497V12.6717H63.336ZM69.7715 4.98488L62.615 12.3799L63.218 12.9634L70.3744 5.56839L69.7715 4.98488ZM70.4925 25.434V5.27663H69.6534V25.434H70.4925ZM88.9183 25.0145H70.073V25.8536H88.9183V25.0145ZM81.82 33.1257L89.215 25.7307L88.6217 25.1374L81.2267 32.5324L81.82 33.1257ZM96.1941 32.4095H81.5233V33.2486H96.1941V32.4095ZM82.8934 46.723L96.4907 33.1257L95.8974 32.5324L82.3001 46.1297L82.8934 46.723ZM96.4907 59.727L82.8934 46.1297L82.3001 46.723L95.8974 60.3203L96.4907 59.727ZM81.5233 60.4432H96.1941V59.6041H81.5233V60.4432ZM89.215 67.122L81.82 59.727L81.2267 60.3203L88.6217 67.7153L89.215 67.122ZM70.073 67.8382H88.9183V66.9991H70.073V67.8382ZM70.4925 86.264V67.4187H69.6534V86.264H70.4925ZM62.6448 80.5007L69.8013 86.5837L70.3447 85.9444L63.1882 79.8614L62.6448 80.5007ZM63.336 92.3471V80.181H62.497V92.3471H63.336ZM48.6495 77.122L62.6047 92.6277L63.2283 92.0664L49.2732 76.5607L48.6495 77.122ZM48.5418 64.1983V76.8414H49.3809V64.1983H48.5418ZM62.5717 78.2824L49.2692 63.9132L48.6535 64.4833L61.956 78.8525L62.5717 78.2824ZM61.8443 60.0236V78.5674H62.6834V60.0236H61.8443ZM79.6379 59.6041H62.2638V60.4432H79.6379V59.6041ZM67.2805 46.7045L79.3238 60.3018L79.952 59.7455L67.9086 46.1482L67.2805 46.7045ZM80.4034 32.5378L67.2925 46.1351L67.8966 46.7176L81.0074 33.1203L80.4034 32.5378ZM62.9165 33.2486H80.7054V32.4095H62.9165V33.2486ZM62.497 14.58V32.8291H63.336V14.58H62.497ZM49.178 28.3154L63.2066 14.8831L62.6263 14.277L48.5977 27.7093L49.178 28.3154ZM48.4683 17.1584V28.0124H49.3074V17.1584H48.4683Z" fill="#21483D"/>
</svg>
